<svg width="60" height="90" viewBox="0 0 60 90" fill="none" xmlns="http://www.w3.org/2000/svg">
<path d="M35 56C37 60 42 66 47 66C56 66 60 58 60 48C60 38 56 29 47 29C42 29 39 34 36 37C35 38 34 37 35 36C38 33 43 25 43 18C43 10 38 0 30 0C22 0 17 10 17 18C17 25 22 33 25 36C26 37 25 38 24 37C21 34 18 29 13 29C4 29 0 38 0 48C0 58 4 66 13 66C18 66 23 60 25 56C26 55 26 56 26 57C25 65 25 67 24 73C23 79 20 90 20 90C25 88 35 88 40 90C40 90 37 79 36 73C35 67 35 65 34 57C34 56 34 55 35 56Z" fill="white"/>
</svg>
