<svg width="60" height="90" viewBox="0 0 60 90" fill="none" xmlns="http://www.w3.org/2000/svg">
<path d="M35.0079 55.9843C36 59.9882 40.0039 70.0157 46.9842 70.0157C55.9842 70.0157 59.9882 62.0079 59.9882 52.0157C59.9882 45 57.437 40.3937 54.9921 35.0079C52.4055 29.2677 48.6142 24.1299 45 18.9921C40.3583 12.4016 30.0118 0 30.0118 0C30.0118 0 19.6299 12.4016 14.9882 18.9921C11.374 24.1299 7.58268 29.2677 4.99606 35.0079C2.58661 40.3937 0 45 0 52.0157C0 62.0079 4.00394 70.0157 13.0039 70.0157C19.9843 70.0157 23.9882 59.9882 25.0157 55.9843C26.0079 54.9921 26.0079 55.9843 26.0079 57.0118C25.0157 64.9843 25.0157 67.0039 23.9882 72.9921C22.9961 79.0157 19.9843 90 19.9843 90C25.0157 88.0157 35.0079 88.0157 40.0039 90C40.0039 90 36.9921 79.0157 36 72.9921C35.0079 67.0039 35.0079 64.9843 34.0157 57.0118C34.0157 55.9843 34.0157 54.9921 35.0079 55.9843Z" fill="white"/>
</svg>
