<svg width="60" height="60" viewBox="0 0 60 60" fill="none" xmlns="http://www.w3.org/2000/svg">
<rect width="60" height="60" rx="30" fill="#747474"/>
<path d="M0.396947 25H59.6082C60.1084 29 60.1183 31 59.6181 35H0.387252C-0.11268 31 -0.103053 29 0.396947 25Z" fill="#CB6D6D"/>
<path d="M25.0029 59.6057L25.0029 0.394497C29.0029 -0.105728 31.0029 -0.115604 35.0029 0.384621V59.6154C31.0029 60.1154 29.0029 60.1057 25.0029 59.6057Z" fill="#CB6D6D"/>
<path d="M5.53276 47.3989L47.4014 5.53021C50.5836 8.00493 52.0048 9.41216 54.4795 12.5943L12.597 54.4768C9.41504 52.0019 8.00763 50.5809 5.53276 47.3989Z" fill="#CB6D6D"/>
<path d="M47.4018 54.4699L5.53314 12.6013C8.00786 9.41912 9.41509 7.99792 12.5972 5.5232L54.4797 47.4057C52.0048 50.5876 50.5838 51.9951 47.4018 54.4699Z" fill="#CB6D6D"/>
<rect x="7" y="7" width="46" height="46" rx="23" fill="#747474"/>
<path d="M29.1605 42.3182C27.3726 42.3182 25.7855 42.0038 24.3991 41.375C23.0204 40.7386 21.9332 39.8636 21.1378 38.75C20.3499 37.6364 19.9484 36.3561 19.9332 34.9091H26.0696C26.0923 35.7121 26.4029 36.3523 27.0014 36.8295C27.6075 37.3068 28.3272 37.5455 29.1605 37.5455C29.8045 37.5455 30.3726 37.4091 30.8651 37.1364C31.3575 36.8561 31.7438 36.4621 32.0241 35.9545C32.3045 35.447 32.4408 34.8561 32.4332 34.1818C32.4408 33.5 32.3045 32.9091 32.0241 32.4091C31.7438 31.9015 31.3575 31.5114 30.8651 31.2386C30.3726 30.9583 29.8045 30.8182 29.1605 30.8182C28.4938 30.8182 27.8764 30.9811 27.3082 31.3068C26.7476 31.625 26.3348 32.0682 26.0696 32.6364L20.5241 31.5455L21.4332 18.7273H37.0696V23.7727H26.6151L26.1605 28.9091H26.2969C26.6605 28.2045 27.2893 27.6212 28.1832 27.1591C29.0772 26.6894 30.1151 26.4545 31.2969 26.4545C32.6832 26.4545 33.9181 26.7765 35.0014 27.4205C36.0923 28.0644 36.9522 28.9545 37.581 30.0909C38.2173 31.2197 38.5317 32.5227 38.5241 34C38.5317 35.6212 38.1454 37.0606 37.3651 38.3182C36.5923 39.5682 35.5052 40.5492 34.1037 41.2614C32.7022 41.9659 31.0545 42.3182 29.1605 42.3182Z" fill="#D9D9D9"/>
</svg>
