<svg width="60" height="60" viewBox="0 0 60 60" fill="none" xmlns="http://www.w3.org/2000/svg">
<rect width="60" height="60" rx="30" fill="#747474"/>
<path d="M0.396947 25H59.6082C60.1084 29 60.1183 31 59.6181 35H0.387252C-0.11268 31 -0.103053 29 0.396947 25Z" fill="black"/>
<path d="M25.0029 59.6057L25.0029 0.394497C29.0029 -0.105728 31.0029 -0.115604 35.0029 0.384621V59.6154C31.0029 60.1154 29.0029 60.1057 25.0029 59.6057Z" fill="black"/>
<path d="M5.53276 47.3989L47.4014 5.53021C50.5836 8.00493 52.0048 9.41216 54.4795 12.5943L12.597 54.4768C9.41504 52.0019 8.00763 50.5809 5.53276 47.3989Z" fill="black"/>
<path d="M47.4018 54.4699L5.53314 12.6013C8.00786 9.41912 9.41509 7.99792 12.5972 5.5232L54.4797 47.4057C52.0048 50.5876 50.5838 51.9951 47.4018 54.4699Z" fill="black"/>
<rect x="7" y="7" width="46" height="46" rx="23" fill="#747474"/>
<path d="M18.4286 22.4545V37H14.4798V26.0909H14.3945L11.2127 27.9943V24.642L14.7923 22.4545H18.4286ZM27.7504 37.3977C26.4293 37.393 25.2882 37.0876 24.3271 36.4815C23.3659 35.8755 22.6249 35.0019 22.104 33.8608C21.5832 32.7197 21.3252 31.3513 21.3299 29.7557C21.3346 28.1553 21.5951 26.7964 22.1112 25.679C22.632 24.5616 23.3706 23.7116 24.3271 23.1293C25.2882 22.5469 26.4293 22.2557 27.7504 22.2557C29.0714 22.2557 30.2125 22.5492 31.1737 23.1364C32.1348 23.7187 32.8758 24.5687 33.3967 25.6861C33.9175 26.8035 34.1755 28.16 34.1708 29.7557C34.1708 31.3608 33.9104 32.7339 33.3896 33.875C32.8687 35.0161 32.1277 35.8897 31.1665 36.4957C30.2101 37.0971 29.0714 37.3977 27.7504 37.3977ZM27.7504 34.1875C28.4322 34.1875 28.9909 33.8324 29.4265 33.1222C29.8668 32.4072 30.0846 31.285 30.0799 29.7557C30.0799 28.7566 29.9805 27.9399 29.7816 27.3054C29.5827 26.6709 29.3081 26.2022 28.9577 25.8991C28.6074 25.5914 28.2049 25.4375 27.7504 25.4375C27.0685 25.4375 26.5122 25.7831 26.0813 26.4744C25.6504 27.1657 25.4303 28.2595 25.4208 29.7557C25.4161 30.7737 25.5131 31.6117 25.712 32.2699C25.9109 32.9233 26.1855 33.4062 26.5359 33.7188C26.891 34.0312 27.2958 34.1875 27.7504 34.1875ZM42.3597 37.3977C41.0387 37.393 39.8976 37.0876 38.9364 36.4815C37.9753 35.8755 37.2343 35.0019 36.7134 33.8608C36.1926 32.7197 35.9345 31.3513 35.9393 29.7557C35.944 28.1553 36.2044 26.7964 36.7205 25.679C37.2414 24.5616 37.98 23.7116 38.9364 23.1293C39.8976 22.5469 41.0387 22.2557 42.3597 22.2557C43.6808 22.2557 44.8219 22.5492 45.783 23.1364C46.7442 23.7187 47.4852 24.5687 48.006 25.6861C48.5269 26.8035 48.7849 28.16 48.7802 29.7557C48.7802 31.3608 48.5198 32.7339 47.9989 33.875C47.4781 35.0161 46.7371 35.8897 45.7759 36.4957C44.8195 37.0971 43.6808 37.3977 42.3597 37.3977ZM42.3597 34.1875C43.0415 34.1875 43.6003 33.8324 44.0359 33.1222C44.4762 32.4072 44.694 31.285 44.6893 29.7557C44.6893 28.7566 44.5898 27.9399 44.391 27.3054C44.1921 26.6709 43.9175 26.2022 43.5671 25.8991C43.2167 25.5914 42.8143 25.4375 42.3597 25.4375C41.6779 25.4375 41.1216 25.7831 40.6907 26.4744C40.2598 27.1657 40.0397 28.2595 40.0302 29.7557C40.0254 30.7737 40.1225 31.6117 40.3214 32.2699C40.5202 32.9233 40.7949 33.4062 41.1452 33.7188C41.5004 34.0312 41.9052 34.1875 42.3597 34.1875Z" fill="#D9D9D9"/>
</svg>
