<svg width="60" height="60" viewBox="0 0 60 60" fill="none" xmlns="http://www.w3.org/2000/svg">
<rect width="60" height="60" rx="30" fill="#747474"/>
<path d="M0.396947 25H59.6082C60.1084 29 60.1183 31 59.6181 35H0.387252C-0.11268 31 -0.103053 29 0.396947 25Z" fill="#85CB6D"/>
<path d="M25.0029 59.6057L25.0029 0.394497C29.0029 -0.105728 31.0029 -0.115604 35.0029 0.384621V59.6154C31.0029 60.1154 29.0029 60.1057 25.0029 59.6057Z" fill="#85CB6D"/>
<path d="M5.53276 47.3989L47.4014 5.53021C50.5836 8.00493 52.0048 9.41216 54.4795 12.5943L12.597 54.4768C9.41504 52.0019 8.00763 50.5809 5.53276 47.3989Z" fill="#85CB6D"/>
<path d="M47.4018 54.4699L5.53314 12.6013C8.00786 9.41912 9.41509 7.99792 12.5972 5.5232L54.4797 47.4057C52.0048 50.5876 50.5838 51.9951 47.4018 54.4699Z" fill="#85CB6D"/>
<rect x="7" y="7" width="46" height="46" rx="23" fill="#747474"/>
<path d="M15.3739 39V35.5909L21.8853 30.2045C22.3171 29.8466 22.6864 29.5114 22.9933 29.1989C23.3058 28.8807 23.5444 28.554 23.7092 28.2188C23.8796 27.8835 23.9648 27.5114 23.9648 27.1023C23.9648 26.6534 23.8683 26.2699 23.6751 25.9517C23.4876 25.6335 23.2262 25.3892 22.891 25.2188C22.5558 25.0426 22.1694 24.9545 21.7319 24.9545C21.2944 24.9545 20.908 25.0426 20.5728 25.2188C20.2433 25.3949 19.9876 25.6534 19.8058 25.9943C19.6239 26.3352 19.533 26.75 19.533 27.2386H15.033C15.033 26.0114 15.3086 24.9545 15.8597 24.0682C16.4109 23.1818 17.1893 22.5 18.195 22.0227C19.2006 21.5455 20.3796 21.3068 21.7319 21.3068C23.1296 21.3068 24.3398 21.5312 25.3626 21.9801C26.391 22.4233 27.1836 23.0483 27.7404 23.8551C28.3029 24.6619 28.5842 25.608 28.5842 26.6932C28.5842 27.3636 28.445 28.0312 28.1665 28.696C27.8881 29.3551 27.3881 30.0852 26.6665 30.8864C25.945 31.6875 24.9194 32.642 23.5898 33.75L21.9535 35.1136V35.2159H28.7717V39H15.3739ZM37.8782 39.2386C36.5373 39.2386 35.3469 39.0028 34.3072 38.5312C33.2731 38.054 32.4577 37.3977 31.8612 36.5625C31.2702 35.7273 30.9691 34.767 30.9577 33.6818H35.56C35.5771 34.2841 35.81 34.7642 36.2589 35.1222C36.7134 35.4801 37.2532 35.6591 37.8782 35.6591C38.3612 35.6591 38.7873 35.5568 39.1566 35.3523C39.5259 35.142 39.8157 34.8466 40.0259 34.4659C40.2362 34.0852 40.3384 33.642 40.3327 33.1364C40.3384 32.625 40.2362 32.1818 40.0259 31.8068C39.8157 31.4261 39.5259 31.1335 39.1566 30.929C38.7873 30.7187 38.3612 30.6136 37.8782 30.6136C37.3782 30.6136 36.9151 30.7358 36.489 30.9801C36.0685 31.2188 35.7589 31.5511 35.56 31.9773L31.4009 31.1591L32.0827 21.5455H43.81V25.3295H35.9691L35.6282 29.1818H35.7305C36.0032 28.6534 36.4748 28.2159 37.1452 27.8693C37.8157 27.517 38.5941 27.3409 39.4805 27.3409C40.5202 27.3409 41.4464 27.5824 42.2589 28.0653C43.0771 28.5483 43.7219 29.2159 44.1935 30.0682C44.6708 30.9148 44.9066 31.892 44.9009 33C44.9066 34.2159 44.6168 35.2955 44.0316 36.2386C43.4521 37.1761 42.6367 37.9119 41.5856 38.446C40.5344 38.9744 39.2987 39.2386 37.8782 39.2386Z" fill="#D9D9D9"/>
</svg>
