<svg width="60" height="90" viewBox="0 0 60 90" fill="none" xmlns="http://www.w3.org/2000/svg">
<path d="M29 18C29 6.95431 23.2843 0 15 0C6.71573 0 0 8.95431 0 20C0.0349 20.9556 0.0182 21.8912 0 22.8125C0 30.111 2.67685 37.1893 5 43.8125C7.38903 50.6235 10.8336 56.5932 14.0625 62.6875C19.0637 72.1269 30 90 30 90C30 90 40.9363 72.1269 45.9375 62.6875C49.1664 56.5932 52.611 50.6235 55 43.8125C57.3231 37.1893 60 30.111 60 22.8125C59.9716 21.8381 59.9814 20.8979 60 20C60 8.95431 53.2843 0 45 0C36.7157 0 31 6.95431 31 18C31 20 29 20 29 18Z" fill="#FF5555"/>
</svg>
